<?xml version="1.0" encoding="utf-8"?>
<!-- Generator: Adobe Illustrator 24.3.0, SVG Export Plug-In . SVG Version: 6.00 Build 0)  -->
<svg version="1.1" id="Layer_1" xmlns="http://www.w3.org/2000/svg" xmlns:xlink="http://www.w3.org/1999/xlink" x="0px" y="0px"
	 viewBox="0 0 576 576" style="enable-background:new 0 0 576 576;" xml:space="preserve">
<style type="text/css">
	.st0{fill:url(#XMLID_4_);}
	.st1{fill:url(#XMLID_5_);}
	.st2{fill:url(#XMLID_7_);}
	.st3{fill:#F1BB1B;}
	.st4{fill:#1F2C5E;}
</style>
<linearGradient id="XMLID_4_" gradientUnits="userSpaceOnUse" x1="166.0837" y1="419.5082" x2="334.6139" y2="419.5082" gradientTransform="matrix(0.497 -0.8677 -0.9065 -0.5192 382.0364 713.3757)">
	<stop  offset="0" style="stop-color:#0D2428"/>
	<stop  offset="1" style="stop-color:#1F2C5E"/>
</linearGradient>
<path id="XMLID_3_" class="st0" d="M77.38,307.57c0,0,66.93-13.63,111.87-90.24c0,0-27.66,101.01-129.73,119.91L77.38,307.57z"/>
<linearGradient id="XMLID_5_" gradientUnits="userSpaceOnUse" x1="81.9242" y1="349.0442" x2="81.9242" y2="187.6663">
	<stop  offset="0" style="stop-color:#1F2C5E"/>
	<stop  offset="1" style="stop-color:#077DB0"/>
</linearGradient>
<polygon id="XMLID_6_" class="st1" points="31.34,349.04 67.27,349.04 81.92,313.11 94.51,281.98 115.8,230.01 132.51,187.67 
	100.01,187.67 "/>
<linearGradient id="XMLID_7_" gradientUnits="userSpaceOnUse" x1="158.493" y1="349.0442" x2="158.493" y2="187.6663">
	<stop  offset="0" style="stop-color:#077DB0"/>
	<stop  offset="1" style="stop-color:#1F2C5E"/>
</linearGradient>
<polygon id="XMLID_1_" class="st2" points="164.33,349.04 201.18,349.04 132.51,187.67 115.8,230.01 137.09,281.98 149.68,313.11 
	"/>
<g>
	<path d="M210.95,333.82h1.44v6.14h7.72v-6.14h1.44v14.16h-1.44v-6.7h-7.72v6.7h-1.44V333.82z"/>
	<path d="M228.83,346.66h7.58v1.32h-9.02v-14.16h8.78v1.32h-7.34v4.82h6.86v1.32h-6.86V346.66z"/>
	<path d="M241.01,347.98h-1.68l6.16-14.16h1.4l6.16,14.16h-1.68l-1.56-3.72h-7.24L241.01,347.98z M243.11,342.94h6.14l-3.06-7.44
		L243.11,342.94z"/>
	<path d="M258.41,346.66h6.6v1.32h-8.04v-14.16h1.44V346.66z"/>
	<path d="M271.67,347.98h-1.44v-12.84h-4.74v-1.32h10.92v1.32h-4.74V347.98z"/>
	<path d="M280.61,333.82h1.44v6.14h7.72v-6.14h1.44v14.16h-1.44v-6.7h-7.72v6.7h-1.44V333.82z"/>
	<path d="M306.04,347.98h-1.44v-14.16h1.44V347.98z"/>
	<path d="M322.12,345.82h0.04v-12h1.44v14.16h-1.8l-8.44-12.12h-0.04v12.12h-1.44v-14.16h1.8L322.12,345.82z"/>
	<path d="M336.14,336.16c-0.63-0.92-1.54-1.38-2.74-1.38c-0.37,0-0.74,0.05-1.1,0.15c-0.36,0.1-0.68,0.25-0.97,0.46
		c-0.29,0.21-0.52,0.47-0.69,0.8c-0.17,0.33-0.26,0.71-0.26,1.15c0,0.64,0.18,1.14,0.54,1.49c0.36,0.35,0.81,0.64,1.34,0.87
		c0.53,0.23,1.12,0.43,1.75,0.61c0.63,0.18,1.22,0.42,1.75,0.72s0.98,0.7,1.34,1.19s0.54,1.17,0.54,2.02c0,0.64-0.14,1.22-0.41,1.73
		s-0.63,0.94-1.08,1.29s-0.95,0.61-1.5,0.8s-1.11,0.28-1.67,0.28c-0.87,0-1.69-0.16-2.47-0.49c-0.78-0.33-1.44-0.86-1.99-1.61
		l1.32-0.94c0.31,0.52,0.73,0.94,1.28,1.25s1.19,0.47,1.93,0.47c0.36,0,0.72-0.06,1.08-0.17c0.36-0.11,0.68-0.28,0.97-0.5
		c0.29-0.22,0.52-0.49,0.71-0.81c0.19-0.32,0.28-0.69,0.28-1.1c0-0.49-0.1-0.9-0.31-1.23c-0.21-0.33-0.48-0.6-0.82-0.82
		s-0.73-0.4-1.16-0.55c-0.43-0.15-0.88-0.29-1.34-0.44s-0.91-0.31-1.34-0.5s-0.82-0.42-1.16-0.71c-0.34-0.29-0.61-0.65-0.82-1.08
		c-0.21-0.43-0.31-0.98-0.31-1.63c0-0.68,0.13-1.27,0.39-1.78c0.26-0.51,0.61-0.93,1.04-1.26c0.43-0.33,0.92-0.58,1.47-0.74
		c0.55-0.16,1.11-0.24,1.68-0.24c0.8,0,1.53,0.13,2.18,0.38c0.65,0.25,1.26,0.7,1.82,1.34L336.14,336.16z"/>
	<path d="M352.68,342.7c0,0.59-0.07,1.21-0.21,1.87s-0.4,1.27-0.79,1.83c-0.39,0.56-0.92,1.02-1.59,1.39
		c-0.67,0.37-1.54,0.55-2.59,0.55c-1.07,0-1.93-0.18-2.6-0.55c-0.67-0.37-1.19-0.83-1.58-1.39c-0.39-0.56-0.65-1.17-0.79-1.83
		c-0.14-0.66-0.21-1.28-0.21-1.87v-8.88h1.44v8.72c0,0.68,0.07,1.26,0.2,1.75c0.13,0.49,0.31,0.9,0.53,1.23
		c0.22,0.33,0.47,0.6,0.74,0.79s0.55,0.34,0.82,0.45s0.54,0.18,0.79,0.21c0.25,0.03,0.47,0.05,0.66,0.05c0.17,0,0.39-0.02,0.65-0.05
		s0.53-0.1,0.8-0.21s0.55-0.26,0.82-0.45s0.52-0.46,0.74-0.79s0.4-0.74,0.53-1.23c0.13-0.49,0.2-1.07,0.2-1.75v-8.72h1.44V342.7z"/>
	<path d="M359.72,347.98h-1.44v-14.16h4.36c1.44,0,2.58,0.31,3.41,0.94c0.83,0.63,1.25,1.57,1.25,2.84c0,0.99-0.31,1.82-0.93,2.49
		c-0.62,0.67-1.52,1.06-2.69,1.17l4.08,6.72H366l-3.88-6.58h-2.4V347.98z M359.72,340.08h2.56c0.64,0,1.18-0.07,1.63-0.2
		c0.45-0.13,0.8-0.31,1.07-0.53s0.46-0.48,0.58-0.78s0.18-0.62,0.18-0.97c0-0.33-0.06-0.65-0.18-0.95s-0.31-0.56-0.58-0.79
		s-0.62-0.4-1.07-0.53c-0.45-0.13-0.99-0.19-1.63-0.19h-2.56V340.08z"/>
	<path d="M371.9,347.98h-1.68l6.16-14.16h1.4l6.16,14.16h-1.68l-1.56-3.72h-7.24L371.9,347.98z M374,342.94h6.14l-3.06-7.44
		L374,342.94z"/>
	<path d="M398.1,345.82h0.04v-12h1.44v14.16h-1.8l-8.44-12.12h-0.04v12.12h-1.44v-14.16h1.8L398.1,345.82z"/>
	<path d="M417.08,345.74c-0.24,0.36-0.54,0.7-0.89,1.02c-0.35,0.32-0.76,0.6-1.21,0.83c-0.45,0.23-0.94,0.42-1.47,0.55
		c-0.53,0.13-1.08,0.2-1.67,0.2c-1.05,0-2.03-0.19-2.93-0.56c-0.9-0.37-1.68-0.89-2.34-1.55s-1.18-1.44-1.55-2.35
		c-0.37-0.91-0.56-1.9-0.56-2.98s0.19-2.07,0.56-2.98c0.37-0.91,0.89-1.69,1.55-2.35s1.44-1.18,2.34-1.55
		c0.9-0.37,1.88-0.56,2.93-0.56c0.88,0,1.76,0.17,2.64,0.52c0.88,0.35,1.63,0.92,2.26,1.72l-1.26,0.94
		c-0.15-0.23-0.35-0.45-0.6-0.68s-0.54-0.43-0.87-0.6c-0.33-0.17-0.68-0.31-1.05-0.42s-0.75-0.16-1.12-0.16
		c-0.91,0-1.72,0.17-2.44,0.5c-0.72,0.33-1.33,0.78-1.83,1.34c-0.5,0.56-0.88,1.21-1.15,1.95s-0.4,1.52-0.4,2.33s0.13,1.59,0.4,2.33
		s0.65,1.39,1.15,1.95c0.5,0.56,1.11,1.01,1.83,1.34c0.72,0.33,1.53,0.5,2.44,0.5c0.37,0,0.74-0.03,1.11-0.1
		c0.37-0.07,0.73-0.18,1.08-0.34c0.35-0.16,0.69-0.38,1-0.65c0.31-0.27,0.6-0.62,0.87-1.03L417.08,345.74z"/>
	<path d="M422.94,346.66h7.58v1.32h-9.02v-14.16h8.78v1.32h-7.34v4.82h6.86v1.32h-6.86V346.66z"/>
	<path d="M449.62,336.16c-0.63-0.92-1.54-1.38-2.74-1.38c-0.37,0-0.74,0.05-1.1,0.15c-0.36,0.1-0.68,0.25-0.97,0.46
		c-0.29,0.21-0.52,0.47-0.69,0.8c-0.17,0.33-0.26,0.71-0.26,1.15c0,0.64,0.18,1.14,0.54,1.49c0.36,0.35,0.81,0.64,1.34,0.87
		c0.53,0.23,1.12,0.43,1.75,0.61c0.63,0.18,1.22,0.42,1.75,0.72s0.98,0.7,1.34,1.19s0.54,1.17,0.54,2.02c0,0.64-0.14,1.22-0.41,1.73
		s-0.63,0.94-1.08,1.29s-0.95,0.61-1.5,0.8s-1.11,0.28-1.67,0.28c-0.87,0-1.69-0.16-2.47-0.49c-0.78-0.33-1.44-0.86-1.99-1.61
		l1.32-0.94c0.31,0.52,0.73,0.94,1.28,1.25s1.19,0.47,1.93,0.47c0.36,0,0.72-0.06,1.08-0.17c0.36-0.11,0.68-0.28,0.97-0.5
		c0.29-0.22,0.52-0.49,0.71-0.81c0.19-0.32,0.28-0.69,0.28-1.1c0-0.49-0.1-0.9-0.31-1.23c-0.21-0.33-0.48-0.6-0.82-0.82
		s-0.73-0.4-1.16-0.55c-0.43-0.15-0.88-0.29-1.34-0.44s-0.91-0.31-1.34-0.5s-0.82-0.42-1.16-0.71c-0.34-0.29-0.61-0.65-0.82-1.08
		c-0.21-0.43-0.31-0.98-0.31-1.63c0-0.68,0.13-1.27,0.39-1.78c0.26-0.51,0.61-0.93,1.04-1.26c0.43-0.33,0.92-0.58,1.47-0.74
		c0.55-0.16,1.11-0.24,1.68-0.24c0.8,0,1.53,0.13,2.18,0.38c0.65,0.25,1.26,0.7,1.82,1.34L449.62,336.16z"/>
	<path d="M457.48,346.66h7.58v1.32h-9.02v-14.16h8.78v1.32h-7.34v4.82h6.86v1.32h-6.86V346.66z"/>
	<path d="M471.34,347.98h-1.44v-14.16h4.36c1.44,0,2.58,0.31,3.41,0.94c0.83,0.63,1.25,1.57,1.25,2.84c0,0.99-0.31,1.82-0.93,2.49
		c-0.62,0.67-1.52,1.06-2.69,1.17l4.08,6.72h-1.76l-3.88-6.58h-2.4V347.98z M471.34,340.08h2.56c0.64,0,1.18-0.07,1.63-0.2
		c0.45-0.13,0.8-0.31,1.07-0.53s0.46-0.48,0.58-0.78s0.18-0.62,0.18-0.97c0-0.33-0.06-0.65-0.18-0.95s-0.31-0.56-0.58-0.79
		s-0.62-0.4-1.07-0.53c-0.45-0.13-0.99-0.19-1.63-0.19h-2.56V340.08z"/>
	<path d="M488,345.82h0.04l4.64-12h1.56l-5.52,14.16h-1.44l-5.38-14.16h1.6L488,345.82z"/>
	<path d="M499.54,347.98h-1.44v-14.16h1.44V347.98z"/>
	<path d="M517.04,345.74c-0.24,0.36-0.54,0.7-0.89,1.02c-0.35,0.32-0.76,0.6-1.21,0.83c-0.45,0.23-0.94,0.42-1.47,0.55
		c-0.53,0.13-1.08,0.2-1.67,0.2c-1.05,0-2.03-0.19-2.93-0.56c-0.9-0.37-1.68-0.89-2.34-1.55s-1.18-1.44-1.55-2.35
		c-0.37-0.91-0.56-1.9-0.56-2.98s0.19-2.07,0.56-2.98c0.37-0.91,0.89-1.69,1.55-2.35s1.44-1.18,2.34-1.55
		c0.9-0.37,1.88-0.56,2.93-0.56c0.88,0,1.76,0.17,2.64,0.52c0.88,0.35,1.63,0.92,2.26,1.72l-1.26,0.94
		c-0.15-0.23-0.35-0.45-0.6-0.68s-0.54-0.43-0.87-0.6c-0.33-0.17-0.68-0.31-1.05-0.42s-0.75-0.16-1.12-0.16
		c-0.91,0-1.72,0.17-2.44,0.5c-0.72,0.33-1.33,0.78-1.83,1.34c-0.5,0.56-0.88,1.21-1.15,1.95s-0.4,1.52-0.4,2.33s0.13,1.59,0.4,2.33
		s0.65,1.39,1.15,1.95c0.5,0.56,1.11,1.01,1.83,1.34c0.72,0.33,1.53,0.5,2.44,0.5c0.37,0,0.74-0.03,1.11-0.1
		c0.37-0.07,0.73-0.18,1.08-0.34c0.35-0.16,0.69-0.38,1-0.65c0.31-0.27,0.6-0.62,0.87-1.03L517.04,345.74z"/>
	<path d="M522.9,346.66h7.58v1.32h-9.02v-14.16h8.78v1.32h-7.34v4.82h6.86v1.32h-6.86V346.66z"/>
	<path d="M542.02,336.16c-0.63-0.92-1.54-1.38-2.74-1.38c-0.37,0-0.74,0.05-1.1,0.15c-0.36,0.1-0.68,0.25-0.97,0.46
		c-0.29,0.21-0.52,0.47-0.69,0.8c-0.17,0.33-0.26,0.71-0.26,1.15c0,0.64,0.18,1.14,0.54,1.49c0.36,0.35,0.81,0.64,1.34,0.87
		c0.53,0.23,1.12,0.43,1.75,0.61c0.63,0.18,1.22,0.42,1.75,0.72s0.98,0.7,1.34,1.19s0.54,1.17,0.54,2.02c0,0.64-0.14,1.22-0.41,1.73
		s-0.63,0.94-1.08,1.29s-0.95,0.61-1.5,0.8s-1.11,0.28-1.67,0.28c-0.87,0-1.69-0.16-2.47-0.49c-0.78-0.33-1.44-0.86-1.99-1.61
		l1.32-0.94c0.31,0.52,0.73,0.94,1.28,1.25s1.19,0.47,1.93,0.47c0.36,0,0.72-0.06,1.08-0.17c0.36-0.11,0.68-0.28,0.97-0.5
		c0.29-0.22,0.52-0.49,0.71-0.81c0.19-0.32,0.28-0.69,0.28-1.1c0-0.49-0.1-0.9-0.31-1.23c-0.21-0.33-0.48-0.6-0.82-0.82
		s-0.73-0.4-1.16-0.55c-0.43-0.15-0.88-0.29-1.34-0.44s-0.91-0.31-1.34-0.5s-0.82-0.42-1.16-0.71c-0.34-0.29-0.61-0.65-0.82-1.08
		c-0.21-0.43-0.31-0.98-0.31-1.63c0-0.68,0.13-1.27,0.39-1.78c0.26-0.51,0.61-0.93,1.04-1.26c0.43-0.33,0.92-0.58,1.47-0.74
		c0.55-0.16,1.11-0.24,1.68-0.24c0.8,0,1.53,0.13,2.18,0.38c0.65,0.25,1.26,0.7,1.82,1.34L542.02,336.16z"/>
</g>
<rect x="211.46" y="320.73" class="st3" width="332.91" height="3.88"/>
<g>
	<path class="st4" d="M260.92,301.3h-29.58l-7.17,9.72h-13.22l37.88-50.78h11.12l16.44,50.78h-12.41L260.92,301.3z M257.69,291.01
		l-5.64-17.9l-13.14,17.9H257.69z"/>
	<path class="st4" d="M291.15,260.23h42.72c9.03,0,13.46,5.1,11.61,13.93l-4.92,23.08c-1.85,8.83-8.38,13.77-17.57,13.77h-42.56
		L291.15,260.23z M322.58,300.73c4.19,0,6.37-1.78,7.17-5.83l3.95-18.63c0.89-3.89-0.56-5.83-5-5.83h-28.29l-6.45,30.29H322.58z"/>
	<path class="st4" d="M387.38,301.3H357.8l-7.17,9.72h-13.22l37.88-50.78h11.12l16.44,50.78h-12.41L387.38,301.3z M384.16,291.01
		l-5.64-17.9l-13.14,17.9H384.16z"/>
	<path class="st4" d="M488.21,260.23l-10.72,50.78h-11.04l7.17-34.26l-25.79,24.14h-6.69l-15.88-24.38l-7.25,34.5h-11.12
		l10.72-50.78h11.28l18.21,27.86l29.9-27.86H488.21z"/>
	<path class="st4" d="M487.58,300.73h40.78c2.5,0,4.03-1.3,4.35-3.24l0.4-1.94c0.4-1.38-0.48-2.51-1.93-2.75l-31.67-4.13
		c-6.29-0.89-9.91-4.05-8.46-10.77l1.29-6.32c1.61-7.29,7.17-11.34,14.99-11.34h41.59l-2.1,10.21H507.4c-2.34,0-3.79,1.46-4.19,3.16
		l-0.48,2.19c-0.24,1.21,0.24,2.59,2.09,2.92l32.4,4.13c5.8,0.89,9.03,4.37,7.66,10.85l-1.37,6.32
		c-1.37,6.72-7.66,11.02-15.07,11.02H485.4L487.58,300.73z"/>
</g>
</svg>
